<svg width="22" height="27" viewBox="0 0 22 27" fill="none" xmlns="http://www.w3.org/2000/svg">
<g clip-path="url(#clip0_11210_2)">
<path d="M18.1444 26.2869H0.376383C0.325496 26.2868 0.275152 26.2771 0.228385 26.2583C0.181618 26.2395 0.139396 26.212 0.104263 26.1774C0.0691311 26.1429 0.0418152 26.102 0.0239622 26.0573C0.00610918 26.0126 -0.0019112 25.9649 0.000383539 25.9173L0.846383 9.24606C0.851012 9.15545 0.89266 9.07 0.962678 9.00745C1.0327 8.94489 1.1257 8.91005 1.22238 8.91016H17.2984C17.3951 8.91005 17.4881 8.94489 17.5581 9.00745C17.6281 9.07 17.6698 9.15545 17.6744 9.24606L18.5204 25.9163C18.5227 25.964 18.5147 26.0116 18.4968 26.0564C18.479 26.1011 18.4516 26.142 18.4165 26.1765C18.3814 26.211 18.3391 26.2385 18.2924 26.2574C18.2456 26.2761 18.1953 26.2859 18.1444 26.286V26.2869ZM0.770384 25.5814H17.7494L16.9394 9.61574H1.58038L0.770384 25.5814Z" fill="white"/>
<path d="M13.3244 11.0269C13.2246 11.0269 13.129 10.9897 13.0585 10.9236C12.988 10.8574 12.9484 10.7677 12.9484 10.6741V7.16686C12.9484 6.24888 12.5597 5.36848 11.8679 4.71936C11.1761 4.07025 10.2377 3.70558 9.25936 3.70558C8.28098 3.70558 7.34266 4.07025 6.65084 4.71936C5.95902 5.36848 5.57036 6.24888 5.57036 7.16686V10.6741C5.57036 10.7677 5.53075 10.8574 5.46023 10.9236C5.38972 10.9897 5.29408 11.0269 5.19436 11.0269C5.09464 11.0269 4.999 10.9897 4.92849 10.9236C4.85797 10.8574 4.81836 10.7677 4.81836 10.6741V7.16686C4.81836 6.06174 5.28625 5.00189 6.1191 4.22045C6.95195 3.43901 8.08153 3 9.25936 3C10.4372 3 11.5668 3.43901 12.3996 4.22045C13.2325 5.00189 13.7004 6.06174 13.7004 7.16686V10.6741C13.7004 10.7677 13.6607 10.8574 13.5902 10.9236C13.5197 10.9897 13.4241 11.0269 13.3244 11.0269Z" fill="white"/>
</g>
<ellipse cx="19" cy="3.54645" rx="3" ry="3.02447" fill="#C7A17A"/>
<defs>
<clipPath id="clip0_11210_2">
<rect width="19" height="23.4568" fill="white" transform="translate(0 3)"/>
</clipPath>
</defs>
</svg>
